<?xml version="1.0" encoding="UTF-8"?>
<svg id="Layer_1" data-name="Layer 1" xmlns="http://www.w3.org/2000/svg" viewBox="0 0 313.78 267.77">
    <defs>
        <style>
            .cls-1 {
            fill: none;
            }

            .cls-2 {
            fill: #1e40af;
            }
        </style>
    </defs>
    <rect class="cls-1" x="0" width="313.78" height="201.06"/>
    <g>
        <path class="cls-2" d="M21.85,217.14c3.92,0,7.14.78,9.68,2.33,2.53,1.55,3.8,3.27,3.8,5.16,0,.81-.31,1.47-.92,1.97-.61.5-1.41.75-2.41.75-1.15-3.92-4.53-5.88-10.15-5.88-3.7,0-6.83,1.25-9.4,3.74-2.57,2.5-3.85,6.19-3.85,11.09s1.29,8.65,3.88,11.26c2.59,2.61,5.71,3.91,9.37,3.91,5.69,0,9.32-2.09,10.87-6.27.89,0,1.58.25,2.08.75.5.5.75,1.16.75,1.97,0,1.89-1.29,3.65-3.88,5.3-2.59,1.65-5.86,2.47-9.82,2.47-5.21,0-9.58-1.68-13.09-5.05-3.51-3.36-5.27-8.13-5.27-14.31s1.76-10.92,5.27-14.22c3.51-3.31,7.88-4.96,13.09-4.96Z"/>
        <path class="cls-2" d="M45.25,216.36h.39c1.4,0,2.11.68,2.11,2.05v34.72c0,1.41-.7,2.11-2.11,2.11h-.39c-.78,0-1.32-.17-1.64-.5-.31-.33-.47-.87-.47-1.61v-34.72c0-.74.16-1.27.47-1.58.31-.31.86-.47,1.64-.47Z"/>
        <path class="cls-2" d="M54.46,241.65c0-4.62,1.29-8.15,3.88-10.59,2.59-2.44,5.56-3.66,8.93-3.66s6.03.86,7.99,2.58c1.96,1.72,2.94,3.85,2.94,6.41s-1.01,4.54-3.02,5.96c-2.02,1.42-4.61,2.14-7.79,2.14s-6.04-.5-8.6-1.5c0,2.7.92,4.87,2.77,6.52,1.85,1.65,4.1,2.47,6.77,2.47,4.14,0,6.73-1.28,7.76-3.83.63,0,1.16.18,1.61.53.44.35.67.86.67,1.52,0,1.29-.95,2.53-2.86,3.72-1.9,1.18-4.32,1.77-7.24,1.77-3.92,0-7.2-1.18-9.84-3.55-2.64-2.37-3.97-5.86-3.97-10.48ZM72.12,232.56c-1.24-1-2.94-1.5-5.1-1.5s-4.06.87-5.68,2.61c-1.63,1.74-2.46,3.7-2.5,5.88,2.66.89,5.3,1.33,7.93,1.33,4.81,0,7.21-1.55,7.21-4.66,0-1.44-.62-2.66-1.86-3.66Z"/>
        <path class="cls-2" d="M94.44,227.45c7.84,0,11.76,3.64,11.76,10.93v10.98c0,2.03.78,3.33,2.33,3.88-.55,1.41-1.59,2.11-3.11,2.11-1.11,0-1.99-.4-2.63-1.19-.65-.79-.97-1.84-.97-3.13-2.33,3.11-5.34,4.66-9.04,4.66-2.99,0-5.35-.77-7.07-2.3-1.72-1.53-2.58-3.6-2.58-6.21s1.01-4.72,3.02-6.35c2.01-1.63,4.74-2.44,8.18-2.44,2.07,0,3.81.22,5.21.67,1.15.41,1.83.67,2.05.78v-2.44c0-2.25-.57-3.85-1.72-4.8-1.15-.94-2.88-1.41-5.21-1.41-3.29,0-5.84,1.26-7.65,3.77-1.55-.22-2.33-.94-2.33-2.16,0-1.4.96-2.64,2.88-3.72,1.92-1.07,4.21-1.61,6.88-1.61ZM101.6,243.37c-2.33-1.03-4.62-1.55-6.88-1.55s-3.99.48-5.21,1.44c-1.22.96-1.83,2.21-1.83,3.74s.53,2.75,1.58,3.66c1.05.91,2.61,1.36,4.66,1.36s3.84-.74,5.38-2.22c1.53-1.48,2.3-3.27,2.3-5.38v-1.05Z"/>
        <path class="cls-2" d="M116.46,227.9h.33c1.4,0,2.11.68,2.11,2.05v2.99c.63-1.4,1.64-2.66,3.02-3.77,1.39-1.11,2.87-1.66,4.46-1.66s2.8.31,3.63.94c.83.63,1.25,1.4,1.25,2.3s-.39,1.62-1.16,2.13c-1.15-.96-2.37-1.44-3.66-1.44-2.29,0-4.1.93-5.44,2.8-1.33,1.87-2,4.21-2,7.02v11.87c0,.74-.17,1.28-.5,1.61s-.87.5-1.61.5h-.44c-.74,0-1.28-.17-1.61-.5-.33-.33-.5-.87-.5-1.61v-23.18c0-1.37.7-2.05,2.11-2.05Z"/>
        <path class="cls-2" d="M136.76,217.58h23.62c1.4,0,2.11.69,2.11,2.08s-.7,2.08-2.11,2.08h-9.43v31.39c0,1.41-.72,2.11-2.16,2.11h-.5c-1.44,0-2.16-.7-2.16-2.11v-31.39h-9.37c-1.41,0-2.11-.69-2.11-2.08s.7-2.08,2.11-2.08Z"/>
        <path class="cls-2" d="M170.47,216.36h.39c1.4,0,2.11.7,2.11,2.11v14.97c.63-1.63,1.7-3.01,3.22-4.16,1.52-1.15,3.29-1.72,5.32-1.72,3.11,0,5.58.88,7.43,2.63,1.85,1.76,2.77,4.59,2.77,8.51v14.42c0,.74-.17,1.28-.5,1.61-.33.33-.87.5-1.61.5h-.44c-1.37,0-2.05-.7-2.05-2.11v-14.14c0-5.14-2.22-7.71-6.65-7.71-2.33,0-4.15.96-5.46,2.88-1.31,1.92-1.97,4.34-1.97,7.26v11.7c0,1.41-.72,2.11-2.16,2.11h-.39c-.74,0-1.28-.17-1.61-.5-.33-.33-.5-.87-.5-1.61v-34.66c0-1.4.7-2.11,2.11-2.11Z"/>
        <path class="cls-2" d="M197.93,241.65c0-4.62,1.29-8.15,3.88-10.59,2.59-2.44,5.56-3.66,8.93-3.66s6.03.86,7.99,2.58c1.96,1.72,2.94,3.85,2.94,6.41s-1.01,4.54-3.02,5.96c-2.02,1.42-4.61,2.14-7.79,2.14s-6.04-.5-8.6-1.5c0,2.7.92,4.87,2.77,6.52,1.85,1.65,4.1,2.47,6.77,2.47,4.14,0,6.73-1.28,7.77-3.83.63,0,1.16.18,1.61.53.44.35.67.86.67,1.52,0,1.29-.95,2.53-2.86,3.72-1.9,1.18-4.32,1.77-7.24,1.77-3.92,0-7.2-1.18-9.84-3.55-2.64-2.37-3.96-5.86-3.96-10.48ZM215.59,232.56c-1.24-1-2.94-1.5-5.1-1.5s-4.06.87-5.68,2.61c-1.63,1.74-2.46,3.7-2.5,5.88,2.66.89,5.3,1.33,7.93,1.33,4.81,0,7.21-1.55,7.21-4.66,0-1.44-.62-2.66-1.86-3.66Z"/>
        <path class="cls-2" d="M227.54,227.37c0-2.79,1.26-5.19,3.77-7.18,2.51-2,5.61-2.99,9.29-2.99s6.5.45,8.46,1.36c1.96.91,2.94,2.02,2.94,3.35s-.81,2.16-2.44,2.5c-1.41-2.11-4.23-3.16-8.48-3.16-2.52,0-4.57.58-6.16,1.75-1.59,1.16-2.38,2.58-2.38,4.24s.65,2.94,1.94,3.83c1.29.89,3.19,1.66,5.68,2.3,2.5.65,4.42,1.23,5.77,1.75,1.35.52,2.71,1.2,4.08,2.05,2.66,1.63,3.99,4.08,3.99,7.35s-1.33,5.95-3.99,8.04c-2.66,2.09-5.99,3.13-9.98,3.13s-7.11-.53-9.34-1.58c-2.24-1.05-3.36-2.31-3.36-3.77s.94-2.43,2.83-2.91c1.37,2.77,4.46,4.16,9.26,4.16,3.07,0,5.46-.62,7.18-1.86,1.72-1.24,2.58-2.83,2.58-4.77s-.86-3.43-2.58-4.46c-1.72-1.03-4.4-2-8.04-2.91-3.64-.91-6.39-2.14-8.24-3.69-1.85-1.55-2.77-3.72-2.77-6.52Z"/>
        <path class="cls-2" d="M263.37,216.36h.33c.74,0,1.28.17,1.61.5.33.33.5.87.5,1.61v20.35c2.18-1.52,4.28-3.23,6.29-5.16,2.01-1.92,3.55-3.36,4.6-4.33s1.99-1.44,2.8-1.44h1.55c.44,0,.8.12,1.08.36.28.24.42.53.42.86,0,1.22-4.1,4.73-12.31,10.54,1.96,1.55,4.22,3.7,6.79,6.43,2.57,2.74,4.59,5.1,6.07,7.1.22.33.33.65.33.94,0,.74-.46,1.11-1.39,1.11h-1.33c-1.18,0-2.03-.35-2.55-1.05-3.92-5.14-8.04-9.48-12.37-13.03v11.98c0,.74-.17,1.28-.5,1.61-.33.33-.87.5-1.61.5h-.33c-.74,0-1.28-.17-1.61-.5-.33-.33-.5-.87-.5-1.61v-34.66c0-.74.17-1.28.5-1.61.33-.33.87-.5,1.61-.5Z"/>
        <path class="cls-2" d="M288.32,227.95h1.05c1.18,0,1.9.57,2.16,1.72,2.25,8.87,4.75,16.05,7.49,21.52h.5c3.11-7.65,5.6-14.83,7.49-21.52.33-1.15,1.05-1.72,2.16-1.72h.89c1.15,0,1.72.41,1.72,1.22,0,.22-.06.48-.17.78-4.29,13.38-8.95,25.4-13.98,36.05-.3.63-.6,1.08-.92,1.36-.31.28-.8.42-1.47.42h-1.39c-.89,0-1.33-.43-1.33-1.28,0-.26.2-.8.61-1.61,2.74-5.29,4.34-8.52,4.83-9.71h-.11c-.67-.11-1.09-.27-1.28-.47-.19-.2-.31-.33-.39-.39-.08-.06-.17-.18-.28-.39-.11-.2-.19-.33-.22-.39-.04-.06-.12-.22-.25-.5-.13-.28-.21-.45-.25-.53-2.85-5.69-5.66-13.22-8.43-22.57-.11-.3-.17-.55-.17-.78,0-.81.57-1.22,1.72-1.22Z"/>
    </g>
    <path class="cls-2" d="M82.16,100.38c-4.14-16.77-19.36-28.95-36.99-28.95-13.63,0-26.23,7.44-32.97,19.02-3.83-2.07-7.94-3.52-12.2-4.32v10.24c4.05,1.01,7.88,2.8,11.31,5.32l5.28,3.87,2.35-6.11c4.15-10.78,14.69-18.03,26.24-18.03,14.06,0,26.03,10.5,27.86,24.42l.58,4.39,4.43-.04h.28c16.26.01,29.49,13.25,29.49,29.52s-13.24,29.52-29.52,29.52c-.71,0-1.47,0-2.37,0h-5.41s-70.51,0-70.51,0v10h80.51v-.06c20.76-1.16,37.3-18.41,37.3-39.46s-15.66-37.38-35.64-39.33Z"/>
    <path class="cls-2" d="M313.78,103.85h-108.9c-16.28,0-29.52-13.24-29.52-29.52s13.24-29.52,29.52-29.52c4.92,0,9.79,1.23,14.08,3.56l4.3,2.34,2.43-4.25c5.78-10.14,16.61-16.44,28.26-16.44,6.97,0,13.61,2.18,19.22,6.29l5.28,3.87,2.35-6.11c4.15-10.78,14.69-18.03,26.24-18.03,2.32,0,4.58.29,6.74.83V6.66c-2.19-.4-4.45-.61-6.74-.61-13.63,0-26.23,7.44-32.97,19.02-6.15-3.32-13-5.05-20.11-5.05-13.68,0-26.49,6.64-34.44,17.59-4.63-1.84-9.61-2.8-14.63-2.8-21.79,0-39.52,17.73-39.52,39.52s17.73,39.52,39.52,39.52h108.9v-10Z"/>
</svg>